<svg width="48" height="48" viewBox="0 0 48 48" xmlns="http://www.w3.org/2000/svg">
  <!-- 4x3 grid, cell=9, gap=3, radius=2 -->
  <g transform="translate(1.5,7.5)" fill="#9aa">
    <!-- row 1 -->
    <rect x="0" y="0" width="9" height="9" rx="2" ry="2"></rect>
    <rect x="12" y="0" width="9" height="9" rx="2" ry="2"></rect>
    <rect x="24" y="0" width="9" height="9" rx="2" ry="2"></rect>
    <rect x="36" y="0" width="9" height="9" rx="2" ry="2"></rect>
    <!-- row 2 -->
    <rect x="0" y="12" width="9" height="9" rx="2" ry="2"></rect>
    <rect x="12" y="12" width="9" height="9" rx="2" ry="2"></rect>
    <rect x="24" y="12" width="9" height="9" rx="2" ry="2"></rect>
    <rect x="36" y="12" width="9" height="9" rx="2" ry="2"></rect>
    <!-- row 3 -->
    <rect x="0" y="24" width="9" height="9" rx="2" ry="2"></rect>
    <rect x="12" y="24" width="9" height="9" rx="2" ry="2"></rect>
    <rect x="24" y="24" width="9" height="9" rx="2" ry="2"></rect>
    <rect x="36" y="24" width="9" height="9" rx="2" ry="2"></rect>
  </g>
</svg>
